<svg width="24" height="24" viewBox="0 0 24 24" fill="none" xmlns="http://www.w3.org/2000/svg">
<path d="M13.7958 1.56445L12.6066 0.377073C12.1031 -0.125691 11.2889 -0.125691 10.7908 0.377073L0.377636 10.7693C-0.125879 11.2721 -0.125879 12.0851 0.377636 12.5825L10.7908 22.9801C11.2943 23.4828 12.1085 23.4828 12.6066 22.9801L13.7958 21.7927C14.3047 21.2846 14.2939 20.4556 13.7744 19.9581L7.31972 13.818H22.7144C23.4268 13.818 24 13.2457 24 12.5343V10.8228C24 10.1114 23.4268 9.53915 22.7144 9.53915H7.31972L13.7744 3.39901C14.2993 2.90159 14.31 2.07257 13.7958 1.56445Z" fill="black"/>
</svg>
