<svg width="30" height="30" viewBox="0 0 30 30" fill="none" xmlns="http://www.w3.org/2000/svg">
<path d="M28.5534 22.865L20.4512 14.7627L28.5534 6.66045C29.5476 5.66623 29.5476 4.05366 28.5534 3.05944L26.7529 1.25894C25.7587 0.264721 24.1461 0.264721 23.1519 1.25894L15.0497 9.3612L6.94739 1.25894C5.95317 0.264721 4.3406 0.264721 3.34638 1.25894L1.54588 3.05944C0.551661 4.05366 0.551662 5.66623 1.54588 6.66045L9.64814 14.7627L1.54588 22.865C0.551662 23.8592 0.551662 25.4718 1.54588 26.466L3.34638 28.2665C4.3406 29.2607 5.95317 29.2607 6.94739 28.2665L15.0497 20.1642L23.1519 28.2665C24.1461 29.2607 25.7587 29.2607 26.7529 28.2665L28.5534 26.466C29.5476 25.4718 29.5476 23.8592 28.5534 22.865Z" fill="white"/>
</svg>
