<svg width="27" height="25" viewBox="0 0 27 25" fill="none" xmlns="http://www.w3.org/2000/svg">
<path d="M1.11594 1.68494L1.12066 1.67441C1.31996 1.2393 1.71509 1 2.10961 1H24.8934C25.2919 1 25.6868 1.24181 25.8842 1.68397L25.8842 1.68397L25.8865 1.6891C26.0856 2.12837 26.0197 2.63908 25.7143 3.00364L25.7011 3.01944L25.6885 3.03578L16.0845 15.5122L15.8769 15.7818V16.1221V23.215C15.8769 23.5436 15.7028 23.808 15.4791 23.9253L15.4757 23.9271C15.2577 24.0425 15.0002 24.0211 14.7995 23.8613L14.7982 23.8603L11.4228 21.1816L11.4228 21.1816L11.4181 21.1779C11.2473 21.0441 11.1261 20.8117 11.1261 20.5363V16.1221V15.7806L10.9172 15.5104L1.26792 3.03399C1.26791 3.03399 1.26791 3.03398 1.2679 3.03398C0.98082 2.66275 0.915218 2.1332 1.11594 1.68494Z" stroke="black" stroke-width="2"/>
</svg>
