<svg width="36" height="32" viewBox="0 0 36 32" fill="none" xmlns="http://www.w3.org/2000/svg">
<path d="M34.9964 15.8474L34.989 15.9079V15.9688C34.989 16.5253 34.5155 16.975 33.9889 16.975H31.9888H30.9844L30.9888 17.9794L31.0326 27.9813C31.0326 27.9819 31.0326 27.9826 31.0326 27.9833C31.0325 28.1085 31.0236 28.2313 31.0074 28.3771L31.0013 28.4321V28.4875V29.5C31.0013 30.3289 30.3303 31 29.5012 31H28.6062C28.5418 30.986 28.4279 30.9664 28.2874 30.9753C28.1563 30.9673 28.0502 30.9826 27.9879 30.9937C27.976 30.9958 27.9648 30.998 27.9547 31H24.501C23.672 31 23.0009 30.3289 23.0009 29.5V24C23.0009 22.3414 21.6594 21 20.0008 21H16.0007C14.3421 21 13.0006 22.3414 13.0006 24V29.5C13.0006 30.3289 12.3295 31 11.5005 31H8.00658C7.95169 31 7.8912 30.9963 7.79184 30.9897L7.71701 30.9847L7.64227 30.991C7.56022 30.9978 7.52675 31 7.50031 31H6.50027C5.67167 31 5.00017 30.3288 5.00017 29.5V22.5C5.00017 22.4636 5.00145 22.4234 5.00358 22.3915L5.00579 22.3583V22.325V17.975V16.975H4.00579H2.00321C1.43119 16.975 1 16.5441 1 15.9688C1 15.6709 1.08388 15.4336 1.31146 15.1975L17.3078 1.25484L17.3339 1.23201L17.3585 1.20742C17.4515 1.11426 17.538 1.07026 17.6261 1.04378C17.7263 1.01367 17.85 1 18.0257 1C18.2911 1 18.5413 1.07811 18.6998 1.20306L34.6411 15.2197L34.643 15.2213C34.9859 15.5214 35.0121 15.7188 34.9964 15.8474Z" stroke="#FF5870" stroke-width="2"/>
</svg>
