<svg width="27" height="27" viewBox="0 0 27 27" fill="none" xmlns="http://www.w3.org/2000/svg">
<path d="M13.5 0C6.03913 0 0 6.03793 0 13.5C0 20.9609 6.03793 27 13.5 27C16.1213 27 18.69 26.2303 20.871 24.8104C21.5245 24.385 21.6671 23.4883 21.1732 22.8849L20.6192 22.2082C20.2017 21.698 19.4663 21.5731 18.9114 21.929C17.3061 22.9585 15.4223 23.5161 13.5 23.5161C7.97708 23.5161 3.48387 19.0229 3.48387 13.5C3.48387 7.97708 7.97708 3.48387 13.5 3.48387C18.9511 3.48387 23.5161 6.62039 23.5161 12.1935C23.5161 14.3049 22.3679 16.5343 20.3496 16.7494C19.4052 16.7247 19.4291 16.0495 19.616 15.115L20.8916 8.52237C21.0476 7.71623 20.4301 6.96774 19.609 6.96774H17.1605C16.9797 6.96774 16.8052 7.03429 16.6703 7.1547C16.5355 7.27511 16.4497 7.44095 16.4293 7.62059L16.4287 7.6256C15.6287 6.65115 14.2269 6.44026 13.1642 6.44026C9.10439 6.44026 5.66129 9.828 5.66129 14.6851C5.66129 18.2399 7.6637 20.4481 10.8871 20.4481C12.356 20.4481 14.01 19.5969 14.9693 18.3615C15.4876 20.2179 17.1801 20.2179 18.8184 20.2179C24.7469 20.2179 27 16.3196 27 12.1935C27 4.77143 21.0133 0 13.5 0ZM12.3198 16.5718C11.1087 16.5718 10.3564 15.7213 10.3564 14.3524C10.3564 11.9032 12.0318 10.3934 13.5479 10.3934C14.7614 10.3934 15.4859 11.223 15.4859 12.6127C15.4859 15.0656 13.6419 16.5718 12.3198 16.5718Z" fill="black"/>
</svg>
