<svg width="49" height="50" viewBox="0 0 49 50" fill="none" xmlns="http://www.w3.org/2000/svg">
<path d="M22.8865 49.9127C21.9943 49.7886 21.0957 49.6939 20.2086 49.5378C14.9087 48.5985 10.4131 46.1455 6.69531 42.2413C6.2231 41.7448 6.16328 41.3289 6.50057 41.0013C6.84168 40.6698 7.25661 40.7505 7.72245 41.2444C10.445 44.1262 13.6944 46.1723 17.4542 47.3854C29.7533 51.3511 42.9891 44.1927 46.5045 31.6854C49.1176 22.3875 45.7014 12.4331 37.9437 6.73871C37.3315 6.28955 37.1813 5.88518 37.4817 5.49233C37.777 5.1046 38.1703 5.11868 38.7685 5.56911C44.4299 9.83546 47.7964 15.48 48.6199 22.5513C50.0951 35.2288 41.757 46.8147 29.3625 49.4034C28.371 49.6108 27.354 49.6888 26.3485 49.8296C26.2098 49.8488 26.0723 49.8846 25.9349 49.9127H22.8853H22.8865Z" fill="#FF5870"/>
<path d="M0.023324 24.3326C0.023324 23.9947 0.0424158 23.6569 0.0844181 23.3216C0.173514 22.6166 0.256245 21.9102 0.378433 21.2102C2.06361 11.4977 9.23327 3.79934 18.7703 1.53565C24.4432 0.189456 29.9251 0.82544 35.1792 3.37706C35.2938 3.43208 35.4096 3.48711 35.5152 3.55493C35.8576 3.77375 35.9772 4.17044 35.8092 4.50827C35.6412 4.84609 35.2581 4.98813 34.8725 4.8205C34.3188 4.58121 33.7829 4.30096 33.228 4.06807C20.5841 -1.24247 5.9991 5.82758 2.32454 19.1052C0.452256 25.8733 1.4934 32.2446 5.27615 38.1566C5.69363 38.8079 5.70126 39.2136 5.27615 39.4836C4.86885 39.7434 4.50611 39.5821 4.095 38.9602C1.76578 35.4322 0.429345 31.56 0.0946002 27.3385C-0.0619536 26.3519 0.0233237 25.3358 0.0220509 24.3313L0.023324 24.3326Z" fill="#FF5870"/>
<path d="M6.89133 22.106C6.95369 18.8646 7.78865 16.0788 10.0148 13.8612C12.2243 11.6589 14.9316 10.863 17.9901 11.1726C19.6358 11.339 21.1848 11.8445 22.6498 12.6007C23.845 13.2188 25.0019 13.1996 26.1996 12.5879C27.9739 11.6819 29.85 11.1215 31.8585 11.1087C36.41 11.0792 40.0667 13.8023 41.3701 18.1966C42.2865 21.2819 41.9899 24.3223 40.945 27.3116C39.6187 31.1108 37.3251 34.2844 34.4741 37.0548C33.1529 38.3383 31.7465 39.5463 30.2929 40.6762C26.7749 43.4108 22.03 43.3737 18.4903 40.6672C15.232 38.1758 12.3185 35.3542 10.1 31.8646C8.50905 29.3616 7.38644 26.6781 7.01733 23.7094C6.94478 23.1246 6.92315 22.5334 6.89133 22.106ZM40.4957 21.9115C40.4791 20.6702 40.2984 19.3829 39.8529 18.1365C38.5674 14.5356 35.5445 12.4433 31.7401 12.5419C30.0104 12.5867 28.3914 13.0742 26.8653 13.8625C25.231 14.7058 23.6388 14.6891 21.9816 13.8893C21.0308 13.4312 20.0189 13.0576 18.9956 12.8029C15.4547 11.9225 12.1391 13.0998 10.156 15.8728C8.87816 17.6592 8.33213 19.6861 8.3334 21.859C8.33595 25.1694 9.46492 28.1408 11.1908 30.9023C13.4373 34.4968 16.4067 37.4067 19.8306 39.8444C22.5403 41.7741 26.2442 41.7869 28.9629 39.8624C32.4465 37.3952 35.4529 34.4328 37.7133 30.7679C39.3705 28.0806 40.4333 25.1925 40.4944 21.9127L40.4957 21.9115Z" fill="#FF5870"/>
<path d="M30.2229 28.8689C29.556 28.5081 29.127 28.0141 28.8076 27.3334C27.9421 25.4868 26.444 24.5757 24.4139 24.4797C22.3507 24.5693 20.8322 25.5188 19.9616 27.4293C19.6765 28.0538 19.2769 28.5106 18.6698 28.8293C17.5993 29.391 16.9286 30.2945 16.6346 31.4666C16.1878 33.2517 17.0202 34.8219 18.6647 35.2825C19.8407 35.6114 20.8552 35.3056 21.6888 34.4034C22.6651 33.3451 23.8551 32.9421 25.2628 33.2556C26.0838 33.4398 26.6986 33.9479 27.2777 34.5429C28.1088 35.3964 29.1398 35.6088 30.2573 35.2505C31.3595 34.8974 32.0392 34.1283 32.2454 32.9689C32.5267 31.3873 31.7095 29.6738 30.2229 28.8689ZM30.0193 33.8097C29.3752 34.1232 28.7134 33.9811 28.1635 33.4104C26.5242 31.7097 24.2917 31.2184 22.3023 32.1986C21.7168 32.4865 21.1912 32.9318 20.705 33.3784C20.08 33.9543 19.4283 34.136 18.7678 33.7943C18.1161 33.4577 17.8374 32.7885 17.9965 31.9593C18.1568 31.1237 18.5985 30.4749 19.3469 30.091C20.2709 29.6188 20.8704 28.8996 21.293 27.9565C21.8912 26.6231 22.9794 25.9756 24.3897 25.9219C25.8585 25.9846 26.9327 26.6347 27.5208 27.9476C27.951 28.9086 28.5683 29.629 29.5038 30.1127C30.3069 30.5274 30.7308 31.244 30.8568 32.1372C30.9611 32.8678 30.6366 33.5089 30.0193 33.8097Z" fill="#FF5870"/>
<path d="M30.0193 33.8097C29.3752 34.1232 28.7134 33.9811 28.1635 33.4104C26.5242 31.7098 24.2917 31.2184 22.3023 32.1986C21.7168 32.4865 21.1912 32.9318 20.705 33.3784C20.08 33.9543 19.4284 34.136 18.7678 33.7943C18.1161 33.4578 17.8374 32.7885 17.9965 31.9593C18.1568 31.1237 18.5985 30.4749 19.3469 30.091C20.2709 29.6188 20.8704 28.8996 21.293 27.9565C21.8912 26.6232 22.9794 25.9757 24.3897 25.9219C25.8585 25.9846 26.9327 26.6347 27.5208 27.9476C27.951 28.9086 28.5683 29.629 29.5038 30.1128C30.3069 30.5274 30.7308 31.244 30.8568 32.1372C30.9611 32.8678 30.6366 33.5089 30.0193 33.8097Z" fill="#FF5870"/>
<path d="M25.9896 17.4378C25.0668 16.5971 23.7597 16.5984 22.8356 17.434C21.4445 18.6893 21.433 21.1322 22.8114 22.399C23.747 23.2577 25.0694 23.2615 26.0023 22.4016C26.7253 21.7349 27.0129 20.8801 27.0384 19.9178C27.0104 18.9529 26.7151 18.1007 25.9896 17.4378ZM25.2183 21.0848C25.1852 21.1424 25.1483 21.1974 25.1101 21.2499C24.7576 21.7362 24.167 21.7208 23.7368 21.3062C23.0482 20.6408 23.0495 19.1986 23.7482 18.537C24.1924 18.116 24.9154 18.2555 25.2247 18.784C25.2285 18.7904 25.231 18.7955 25.2349 18.8019C25.6421 19.5083 25.6358 20.3849 25.2183 21.0848Z" fill="#FF5870"/>
<path d="M25.2183 21.0848C25.1852 21.1424 25.1483 21.1974 25.1101 21.2499C24.7576 21.7362 24.167 21.7208 23.7368 21.3062C23.0482 20.6408 23.0495 19.1986 23.7483 18.5371C24.1925 18.1161 24.9154 18.2555 25.2247 18.784C25.2285 18.7904 25.2311 18.7956 25.2349 18.8019C25.6422 19.5083 25.6358 20.3849 25.2183 21.0848Z" fill="#FF5870"/>
<path d="M19.6511 21.6479C19.0809 20.5999 18.209 19.9754 17.2239 19.914C15.96 19.9076 15.134 20.4962 14.7827 21.4879C14.1717 23.2065 15.2842 25.3486 17.0406 25.8349C18.0983 26.1266 19.1573 25.7453 19.6906 24.8368C20.3142 23.7747 20.2201 22.6921 19.6511 21.6479ZM18.6418 23.6493C18.4763 24.4017 17.9061 24.7011 17.2137 24.3633C16.4475 23.9871 16.1026 23.3204 16.0262 22.5104C16.0631 22.0638 16.1446 21.6556 16.5659 21.4419C16.9566 21.2435 17.3346 21.3472 17.6885 21.566C18.3758 21.9896 18.8009 22.9237 18.6418 23.6493Z" fill="#FF5870"/>
<path d="M18.6418 23.6493C18.4763 24.4017 17.9061 24.7011 17.2137 24.3633C16.4475 23.9871 16.1026 23.3204 16.0262 22.5104C16.0631 22.0638 16.1446 21.6556 16.5659 21.4419C16.9566 21.2435 17.3346 21.3472 17.6885 21.566C18.3758 21.9896 18.8009 22.9237 18.6418 23.6493Z" fill="#FF5870"/>
<path d="M34.2068 22.2749C34.0375 20.2582 32.1538 19.2741 30.4279 20.3196C29.3231 20.9876 28.8012 22.0215 28.7134 23.1399C28.6867 25.1899 30.3069 26.4018 32.0099 25.7607C33.3489 25.2565 34.3264 23.7043 34.2068 22.2749ZM31.4703 24.426C30.7244 24.6678 30.1542 24.2097 30.1415 23.36C30.13 22.5641 30.6811 21.7144 31.3914 21.4342C32.0405 21.177 32.5649 21.4444 32.7354 22.1201C32.9569 22.9928 32.3218 24.1496 31.4703 24.426Z" fill="#FF5870"/>
<path d="M31.4703 24.426C30.7244 24.6678 30.1542 24.2097 30.1415 23.36C30.13 22.5641 30.6811 21.7144 31.3914 21.4342C32.0405 21.177 32.5649 21.4444 32.7354 22.1201C32.9569 22.9928 32.3218 24.1496 31.4703 24.426Z" fill="#FF5870"/>
</svg>
