<svg width="15" height="16" viewBox="0 0 15 16" fill="none" xmlns="http://www.w3.org/2000/svg">
<path d="M11.3144 1.04542C11.5004 0.84247 11.7213 0.681479 11.9644 0.571642C12.2074 0.461806 12.468 0.405273 12.7311 0.405273C12.9942 0.405273 13.2547 0.461806 13.4978 0.571642C13.7408 0.681479 13.9617 0.84247 14.1477 1.04542C14.3338 1.24837 14.4813 1.48931 14.582 1.75448C14.6827 2.01965 14.7345 2.30386 14.7345 2.59088C14.7345 2.87789 14.6827 3.1621 14.582 3.42727C14.4813 3.69244 14.3338 3.93338 14.1477 4.13633L4.58523 14.5681L0.689394 15.7272L1.75189 11.4772L11.3144 1.04542Z" fill="#FF5870"/>
</svg>
